<svg xmlns="http://www.w3.org/2000/svg" viewBox="0 0 900 900"><defs><style>.cls-1{fill:#fff;}</style></defs><g id="Capa_2" data-name="Capa 2"><g id="Capa_1-2" data-name="Capa 1"><path d="M900,156V744c-.59,3.6-1.26,7.18-1.75,10.79-9.16,67.8-60.33,124.5-126.84,140.24-9,2.14-18.27,3.34-27.41,5H156c-6.05-1-12.16-1.65-18.14-3q-99.74-21.67-131-118.88C3.36,767.17,2.23,755.41,0,744V156a34.55,34.55,0,0,0,.85-3.83c1.68-16.34,5.24-32.23,11.75-47.33C34,55.19,70.49,22.19,122.31,6.7,133.24,3.44,144.76,2.18,156,0H744c6.22,1,12.51,1.68,18.65,3Q862,24.89,893.11,121.84C896.62,132.84,897.76,144.59,900,156ZM450.18,112.58q-139.5,0-279,.12a65.21,65.21,0,0,0-20.11,2.89c-24.35,8.09-38.5,28.78-38.52,55.39q-.09,84,0,168,0,195,0,390c0,9.13,1.22,18,5.36,26.2,11.1,22,29.26,32.46,53.66,32.46q166.24,0,332.5,0,112.25,0,224.5,0c20.41,0,36.94-7.6,48.91-24.34,8-11.19,10-23.87,10-37.43q-.23-276.5-.14-553a77,77,0,0,0-.85-13.93c-5.17-27.95-27.78-46.37-56.76-46.38Q589.93,112.55,450.18,112.58Z"/><path class="cls-1" d="M450.18,112.58q139.74,0,279.49,0c29,0,51.59,18.43,56.76,46.38a77,77,0,0,1,.85,13.93q.06,276.5.14,553c0,13.56-2,26.24-10,37.43-12,16.74-28.5,24.35-48.91,24.34q-112.26-.07-224.5,0-166.24,0-332.5,0c-24.4,0-42.56-10.49-53.66-32.46-4.14-8.2-5.36-17.07-5.36-26.2q0-195,0-390,0-84,0-168c0-26.61,14.17-47.3,38.52-55.39a65.21,65.21,0,0,1,20.11-2.89Q310.68,112.43,450.18,112.58Zm-225,112.68v112H674.76v-112ZM674.75,394.15H225.4V506H674.75ZM225.38,562.85v111.9H674.63V562.85Z"/><path d="M225.22,225.26H674.76v112H225.22Z"/><path d="M674.75,394.15V506H225.4V394.15Z"/><path d="M225.38,562.85H674.63v111.9H225.38Z"/></g></g></svg>